<svg width="19" height="18" viewBox="0 0 19 18" fill="none" xmlns="http://www.w3.org/2000/svg">
<g id="Phone icon">
<path id="Rectangle 348" d="M5.6956 6.52827C6.8293 9.62101 8.00298 10.855 10.9888 12.1693L9.69482 13.9866C6.26617 12.3451 4.55844 9.57809 3.75414 7.41875L5.6956 6.52827Z" fill="#494949"/>
<path id="Rectangle 349" d="M6.64665 2.25836C7.25287 2.25599 7.71381 2.76042 7.67248 3.33161C7.60745 4.23048 7.67669 4.87899 7.86311 5.68285C7.96552 6.12442 7.73385 6.57289 7.36569 6.86175C6.86946 7.25109 6.49035 7.74719 6.18905 8.17425C5.77142 8.76618 4.33423 8.72365 4.01639 8.0788C3.36318 6.75354 2.92051 4.31196 3.87438 2.66237C4.02421 2.40327 4.32589 2.26743 4.63849 2.26621L6.64665 2.25836Z" fill="#494949"/>
<path id="Rectangle 350" d="M15.8489 12.0653C15.9242 11.4973 15.4494 11.0044 14.844 10.9745C13.8913 10.9274 13.218 10.7845 12.3954 10.513C11.9435 10.3639 11.4443 10.5272 11.0963 10.8376C10.6274 11.256 10.0603 11.5518 9.57516 11.7829C8.90271 12.1033 8.77458 13.4558 9.41421 13.8314C10.7287 14.6032 13.242 15.3118 15.0908 14.6159C15.3812 14.5066 15.5602 14.2401 15.5991 13.9471L15.8489 12.0653Z" fill="#494949"/>
</g>
</svg>
